<svg width="250" height="250" viewBox="0 0 250 250" fill="none" xmlns="http://www.w3.org/2000/svg">
<circle cx="125" cy="125" r="125" fill="black"/>
<circle cx="125" cy="125" r="122" stroke="#023E8A" stroke-width="6"/>
<circle cx="125.5" cy="124.5" r="109.5" stroke="#0096C7" stroke-width="6"/>
<circle cx="125" cy="125" r="97" stroke="#00B4D8" stroke-width="6"/>
<path d="M94.2857 66C94.2857 63.7875 92.3705 62 90 62C87.6294 62 85.7143 63.7875 85.7143 66V84H66.4285C64.058 84 62.1428 85.7875 62.1428 88C62.1428 90.2125 64.058 92 66.4285 92H85.7143V110C85.7143 112.213 87.6294 114 90 114C92.3705 114 94.2857 112.213 94.2857 110V92H113.571C115.942 92 117.857 90.2125 117.857 88C117.857 85.7875 115.942 84 113.571 84H94.2857V66Z" fill="white"/>
<path d="M113.531 147.59C115.484 145.881 115.484 143.105 113.531 141.396C111.578 139.688 108.406 139.688 106.453 141.396L90 155.807L73.5312 141.41C71.5781 139.701 68.4062 139.701 66.4531 141.41C64.5 143.119 64.5 145.895 66.4531 147.604L82.9219 162L66.4688 176.41C64.5156 178.119 64.5156 180.895 66.4688 182.604C68.4219 184.313 71.5937 184.313 73.5469 182.604L90 168.193L106.469 182.59C108.422 184.299 111.594 184.299 113.547 182.59C115.5 180.881 115.5 178.105 113.547 176.396L97.0781 162L113.531 147.59Z" fill="white"/>
<path d="M166.429 142C166.429 141.212 166.262 140.432 165.939 139.704C165.616 138.976 165.143 138.315 164.546 137.757C163.949 137.2 163.24 136.758 162.46 136.457C161.68 136.155 160.844 136 160 136C159.156 136 158.32 136.155 157.54 136.457C156.76 136.758 156.051 137.2 155.454 137.757C154.857 138.315 154.384 138.976 154.061 139.704C153.738 140.432 153.571 141.212 153.571 142C153.571 142.788 153.738 143.568 154.061 144.296C154.384 145.024 154.857 145.685 155.454 146.243C156.051 146.8 156.76 147.242 157.54 147.543C158.32 147.845 159.156 148 160 148C160.844 148 161.68 147.845 162.46 147.543C163.24 147.242 163.949 146.8 164.546 146.243C165.143 145.685 165.616 145.024 165.939 144.296C166.262 143.568 166.429 142.788 166.429 142ZM166.429 182C166.429 181.212 166.262 180.432 165.939 179.704C165.616 178.976 165.143 178.315 164.546 177.757C163.949 177.2 163.24 176.758 162.46 176.457C161.68 176.155 160.844 176 160 176C159.156 176 158.32 176.155 157.54 176.457C156.76 176.758 156.051 177.2 155.454 177.757C154.857 178.315 154.384 178.976 154.061 179.704C153.738 180.432 153.571 181.212 153.571 182C153.571 182.788 153.738 183.568 154.061 184.296C154.384 185.024 154.857 185.685 155.454 186.243C156.051 186.8 156.76 187.242 157.54 187.543C158.32 187.845 159.156 188 160 188C160.844 188 161.68 187.845 162.46 187.543C163.24 187.242 163.949 186.8 164.546 186.243C165.143 185.685 165.616 185.024 165.939 184.296C166.262 183.568 166.429 182.788 166.429 182ZM183.571 166C185.942 166 187.857 164.213 187.857 162C187.857 159.787 185.942 158 183.571 158H136.429C134.058 158 132.143 159.787 132.143 162C132.143 164.213 134.058 166 136.429 166H183.571Z" fill="white"/>
<path d="M187.857 88C187.857 90.2125 185.942 92 183.571 92H136.429C134.058 92 132.143 90.2125 132.143 88C132.143 85.7875 134.058 84 136.429 84H183.571C185.942 84 187.857 85.7875 187.857 88Z" fill="white"/>
</svg>
